<?xml version="1.0" encoding="utf-8"?>
<svg viewBox="0 0 60 60" xmlns="http://www.w3.org/2000/svg">
  <g transform="matrix(0.050000004470348365, 0, 0, -0.050000004470348365, 4.440892098500626e-16, 60.00000000000001)" fill="#c3a041" stroke="none">
    <path d="M 508 817 C 416 727 347 645 354 634 C 361 623 356 620 344 627 C 324 640 260 570 260 535 C 260 499 564 223 601 226 C 622 227 726 316 832 422 L 1025 616 L 1011 746 C 992 923 865.002 940.582 837.709 948 C 778.836 964 799.784 963.772 751.962 967.709 C 717.633 970.535 694.183 972.4 667.049 951.412 C 631.096 923.602 587.328 893.977 508 817 Z M 892 865 C 958 821 917.806 730.821 857.354 716.228 C 835.226 710.887 808.442 708.038 792.189 719.684 C 782.435 726.673 770.454 743.793 763.418 755.772 C 750.088 778.467 758 826 796 855 C 832 883 860 886 892 865 Z M 725.354 605 C 730.394 576.13 734.733 556.582 705 559.747 C 685.582 646.797 619.684 572.126 619.684 516.126 C 619.684 417.126 491 385 484 484 C 481 519 478.126 532.266 466.126 546.266 C 451.126 564.266 468.67 569.266 494.67 566.266 C 516.67 562.266 513.063 559.519 514.063 533.519 C 514.063 443.519 603.923 483.81 589 605 C 583.127 652.692 642.151 658.646 668 658.646 C 730 658.646 719.796 636.837 725.354 605 Z"/>
    <path d="M795 815 c-15 -40 6 -75 45 -75 38 0 68 51 49 82 -17 27 -83 22 -94 -7z"/>
  </g>
</svg>